%TF.GenerationSoftware,KiCad,Pcbnew,(6.0.10)*%
%TF.CreationDate,2023-01-21T16:14:35+01:00*%
%TF.ProjectId,MS 5V for Powr Bus,4d532035-5620-4666-9f72-20506f777220,1.0*%
%TF.SameCoordinates,Original*%
%TF.FileFunction,Drillmap*%
%TF.FilePolarity,Positive*%
%FSLAX45Y45*%
G04 Gerber Fmt 4.5, Leading zero omitted, Abs format (unit mm)*
G04 Created by KiCad (PCBNEW (6.0.10)) date 2023-01-21 16:14:35*
%MOMM*%
%LPD*%
G01*
G04 APERTURE LIST*
%ADD10C,0.100000*%
%ADD11C,0.200000*%
%ADD12C,0.080000*%
%ADD13C,0.090000*%
%ADD14C,0.110000*%
G04 APERTURE END LIST*
D10*
X17850000Y-9900000D02*
X14975000Y-9900000D01*
X14975000Y-9900000D02*
X14975000Y-7500000D01*
X17850000Y-7500000D02*
X17850000Y-9900000D01*
X14975000Y-7500000D02*
X17850000Y-7500000D01*
D11*
D12*
X15327000Y-8110000D02*
X15407000Y-8190000D01*
X15407000Y-8110000D02*
X15327000Y-8190000D01*
X15327000Y-8560000D02*
X15407000Y-8640000D01*
X15407000Y-8560000D02*
X15327000Y-8640000D01*
X16343000Y-8110000D02*
X16423000Y-8190000D01*
X16423000Y-8110000D02*
X16343000Y-8190000D01*
X16343000Y-8560000D02*
X16423000Y-8640000D01*
X16423000Y-8560000D02*
X16343000Y-8640000D01*
X16635000Y-7960000D02*
X16715000Y-8040000D01*
X16715000Y-7960000D02*
X16635000Y-8040000D01*
X16635000Y-8485000D02*
X16715000Y-8565000D01*
X16715000Y-8485000D02*
X16635000Y-8565000D01*
X16885000Y-7960000D02*
X16965000Y-8040000D01*
X16965000Y-7960000D02*
X16885000Y-8040000D01*
X16885000Y-8485000D02*
X16965000Y-8565000D01*
X16965000Y-8485000D02*
X16885000Y-8565000D01*
D13*
X15191000Y-7750000D02*
G75*
G03*
X15191000Y-7750000I-45000J0D01*
G01*
X15295000Y-8897000D02*
G75*
G03*
X15295000Y-8897000I-45000J0D01*
G01*
X15295000Y-9151000D02*
G75*
G03*
X15295000Y-9151000I-45000J0D01*
G01*
X15445000Y-7750000D02*
G75*
G03*
X15445000Y-7750000I-45000J0D01*
G01*
D10*
X15497000Y-9475000D02*
X15497000Y-9575000D01*
X15447000Y-9525000D02*
X15547000Y-9525000D01*
X15497000Y-9729000D02*
X15497000Y-9829000D01*
X15447000Y-9779000D02*
X15547000Y-9779000D01*
X15751000Y-9475000D02*
X15751000Y-9575000D01*
X15701000Y-9525000D02*
X15801000Y-9525000D01*
X15751000Y-9729000D02*
X15751000Y-9829000D01*
X15701000Y-9779000D02*
X15801000Y-9779000D01*
X16005000Y-9475000D02*
X16005000Y-9575000D01*
X15955000Y-9525000D02*
X16055000Y-9525000D01*
X16005000Y-9729000D02*
X16005000Y-9829000D01*
X15955000Y-9779000D02*
X16055000Y-9779000D01*
X16259000Y-9475000D02*
X16259000Y-9575000D01*
X16209000Y-9525000D02*
X16309000Y-9525000D01*
X16259000Y-9729000D02*
X16259000Y-9829000D01*
X16209000Y-9779000D02*
X16309000Y-9779000D01*
X16513000Y-9475000D02*
X16513000Y-9575000D01*
X16463000Y-9525000D02*
X16563000Y-9525000D01*
X16513000Y-9729000D02*
X16513000Y-9829000D01*
X16463000Y-9779000D02*
X16563000Y-9779000D01*
X16767000Y-9475000D02*
X16767000Y-9575000D01*
X16717000Y-9525000D02*
X16817000Y-9525000D01*
X16767000Y-9729000D02*
X16767000Y-9829000D01*
X16717000Y-9779000D02*
X16817000Y-9779000D01*
X17021000Y-9475000D02*
X17021000Y-9575000D01*
X16971000Y-9525000D02*
X17071000Y-9525000D01*
X17021000Y-9729000D02*
X17021000Y-9829000D01*
X16971000Y-9779000D02*
X17071000Y-9779000D01*
X17275000Y-9475000D02*
X17275000Y-9575000D01*
X17225000Y-9525000D02*
X17325000Y-9525000D01*
X17275000Y-9729000D02*
X17275000Y-9829000D01*
X17225000Y-9779000D02*
X17325000Y-9779000D01*
D14*
X17313891Y-8055891D02*
X17313891Y-7978109D01*
X17236109Y-7978109D01*
X17236109Y-8055891D01*
X17313891Y-8055891D01*
X17313891Y-8309891D02*
X17313891Y-8232109D01*
X17236109Y-8232109D01*
X17236109Y-8309891D01*
X17313891Y-8309891D01*
X17313891Y-8563891D02*
X17313891Y-8486109D01*
X17236109Y-8486109D01*
X17236109Y-8563891D01*
X17313891Y-8563891D01*
D11*
X15227619Y-10215476D02*
X15227619Y-10015476D01*
X15275238Y-10015476D01*
X15303809Y-10025000D01*
X15322857Y-10044048D01*
X15332381Y-10063095D01*
X15341905Y-10101190D01*
X15341905Y-10129762D01*
X15332381Y-10167857D01*
X15322857Y-10186905D01*
X15303809Y-10205952D01*
X15275238Y-10215476D01*
X15227619Y-10215476D01*
X15427619Y-10215476D02*
X15427619Y-10082143D01*
X15427619Y-10120238D02*
X15437143Y-10101190D01*
X15446667Y-10091667D01*
X15465714Y-10082143D01*
X15484762Y-10082143D01*
X15551428Y-10215476D02*
X15551428Y-10082143D01*
X15551428Y-10015476D02*
X15541905Y-10025000D01*
X15551428Y-10034524D01*
X15560952Y-10025000D01*
X15551428Y-10015476D01*
X15551428Y-10034524D01*
X15675238Y-10215476D02*
X15656190Y-10205952D01*
X15646667Y-10186905D01*
X15646667Y-10015476D01*
X15780000Y-10215476D02*
X15760952Y-10205952D01*
X15751428Y-10186905D01*
X15751428Y-10015476D01*
X16008571Y-10215476D02*
X16008571Y-10015476D01*
X16075238Y-10158333D01*
X16141905Y-10015476D01*
X16141905Y-10215476D01*
X16322857Y-10215476D02*
X16322857Y-10110714D01*
X16313333Y-10091667D01*
X16294286Y-10082143D01*
X16256190Y-10082143D01*
X16237143Y-10091667D01*
X16322857Y-10205952D02*
X16303809Y-10215476D01*
X16256190Y-10215476D01*
X16237143Y-10205952D01*
X16227619Y-10186905D01*
X16227619Y-10167857D01*
X16237143Y-10148810D01*
X16256190Y-10139286D01*
X16303809Y-10139286D01*
X16322857Y-10129762D01*
X16418095Y-10082143D02*
X16418095Y-10282143D01*
X16418095Y-10091667D02*
X16437143Y-10082143D01*
X16475238Y-10082143D01*
X16494286Y-10091667D01*
X16503809Y-10101190D01*
X16513333Y-10120238D01*
X16513333Y-10177381D01*
X16503809Y-10196429D01*
X16494286Y-10205952D01*
X16475238Y-10215476D01*
X16437143Y-10215476D01*
X16418095Y-10205952D01*
X16599048Y-10196429D02*
X16608571Y-10205952D01*
X16599048Y-10215476D01*
X16589524Y-10205952D01*
X16599048Y-10196429D01*
X16599048Y-10215476D01*
X16599048Y-10091667D02*
X16608571Y-10101190D01*
X16599048Y-10110714D01*
X16589524Y-10101190D01*
X16599048Y-10091667D01*
X16599048Y-10110714D01*
D12*
X14890000Y-10505000D02*
X14970000Y-10585000D01*
X14970000Y-10505000D02*
X14890000Y-10585000D01*
D11*
X15265714Y-10435476D02*
X15284762Y-10435476D01*
X15303809Y-10445000D01*
X15313333Y-10454524D01*
X15322857Y-10473571D01*
X15332381Y-10511667D01*
X15332381Y-10559286D01*
X15322857Y-10597381D01*
X15313333Y-10616429D01*
X15303809Y-10625952D01*
X15284762Y-10635476D01*
X15265714Y-10635476D01*
X15246667Y-10625952D01*
X15237143Y-10616429D01*
X15227619Y-10597381D01*
X15218095Y-10559286D01*
X15218095Y-10511667D01*
X15227619Y-10473571D01*
X15237143Y-10454524D01*
X15246667Y-10445000D01*
X15265714Y-10435476D01*
X15418095Y-10616429D02*
X15427619Y-10625952D01*
X15418095Y-10635476D01*
X15408571Y-10625952D01*
X15418095Y-10616429D01*
X15418095Y-10635476D01*
X15541905Y-10521190D02*
X15522857Y-10511667D01*
X15513333Y-10502143D01*
X15503809Y-10483095D01*
X15503809Y-10473571D01*
X15513333Y-10454524D01*
X15522857Y-10445000D01*
X15541905Y-10435476D01*
X15580000Y-10435476D01*
X15599048Y-10445000D01*
X15608571Y-10454524D01*
X15618095Y-10473571D01*
X15618095Y-10483095D01*
X15608571Y-10502143D01*
X15599048Y-10511667D01*
X15580000Y-10521190D01*
X15541905Y-10521190D01*
X15522857Y-10530714D01*
X15513333Y-10540238D01*
X15503809Y-10559286D01*
X15503809Y-10597381D01*
X15513333Y-10616429D01*
X15522857Y-10625952D01*
X15541905Y-10635476D01*
X15580000Y-10635476D01*
X15599048Y-10625952D01*
X15608571Y-10616429D01*
X15618095Y-10597381D01*
X15618095Y-10559286D01*
X15608571Y-10540238D01*
X15599048Y-10530714D01*
X15580000Y-10521190D01*
X15741905Y-10435476D02*
X15760952Y-10435476D01*
X15780000Y-10445000D01*
X15789524Y-10454524D01*
X15799048Y-10473571D01*
X15808571Y-10511667D01*
X15808571Y-10559286D01*
X15799048Y-10597381D01*
X15789524Y-10616429D01*
X15780000Y-10625952D01*
X15760952Y-10635476D01*
X15741905Y-10635476D01*
X15722857Y-10625952D01*
X15713333Y-10616429D01*
X15703809Y-10597381D01*
X15694286Y-10559286D01*
X15694286Y-10511667D01*
X15703809Y-10473571D01*
X15713333Y-10454524D01*
X15722857Y-10445000D01*
X15741905Y-10435476D01*
X15932381Y-10435476D02*
X15951428Y-10435476D01*
X15970476Y-10445000D01*
X15980000Y-10454524D01*
X15989524Y-10473571D01*
X15999048Y-10511667D01*
X15999048Y-10559286D01*
X15989524Y-10597381D01*
X15980000Y-10616429D01*
X15970476Y-10625952D01*
X15951428Y-10635476D01*
X15932381Y-10635476D01*
X15913333Y-10625952D01*
X15903809Y-10616429D01*
X15894286Y-10597381D01*
X15884762Y-10559286D01*
X15884762Y-10511667D01*
X15894286Y-10473571D01*
X15903809Y-10454524D01*
X15913333Y-10445000D01*
X15932381Y-10435476D01*
X16084762Y-10635476D02*
X16084762Y-10502143D01*
X16084762Y-10521190D02*
X16094286Y-10511667D01*
X16113333Y-10502143D01*
X16141905Y-10502143D01*
X16160952Y-10511667D01*
X16170476Y-10530714D01*
X16170476Y-10635476D01*
X16170476Y-10530714D02*
X16180000Y-10511667D01*
X16199048Y-10502143D01*
X16227619Y-10502143D01*
X16246667Y-10511667D01*
X16256190Y-10530714D01*
X16256190Y-10635476D01*
X16351428Y-10635476D02*
X16351428Y-10502143D01*
X16351428Y-10521190D02*
X16360952Y-10511667D01*
X16380000Y-10502143D01*
X16408571Y-10502143D01*
X16427619Y-10511667D01*
X16437143Y-10530714D01*
X16437143Y-10635476D01*
X16437143Y-10530714D02*
X16446667Y-10511667D01*
X16465714Y-10502143D01*
X16494286Y-10502143D01*
X16513333Y-10511667D01*
X16522857Y-10530714D01*
X16522857Y-10635476D01*
X16913333Y-10425952D02*
X16741905Y-10683095D01*
X17170476Y-10435476D02*
X17189524Y-10435476D01*
X17208571Y-10445000D01*
X17218095Y-10454524D01*
X17227619Y-10473571D01*
X17237143Y-10511667D01*
X17237143Y-10559286D01*
X17227619Y-10597381D01*
X17218095Y-10616429D01*
X17208571Y-10625952D01*
X17189524Y-10635476D01*
X17170476Y-10635476D01*
X17151429Y-10625952D01*
X17141905Y-10616429D01*
X17132381Y-10597381D01*
X17122857Y-10559286D01*
X17122857Y-10511667D01*
X17132381Y-10473571D01*
X17141905Y-10454524D01*
X17151429Y-10445000D01*
X17170476Y-10435476D01*
X17322857Y-10616429D02*
X17332381Y-10625952D01*
X17322857Y-10635476D01*
X17313333Y-10625952D01*
X17322857Y-10616429D01*
X17322857Y-10635476D01*
X17456190Y-10435476D02*
X17475238Y-10435476D01*
X17494286Y-10445000D01*
X17503810Y-10454524D01*
X17513333Y-10473571D01*
X17522857Y-10511667D01*
X17522857Y-10559286D01*
X17513333Y-10597381D01*
X17503810Y-10616429D01*
X17494286Y-10625952D01*
X17475238Y-10635476D01*
X17456190Y-10635476D01*
X17437143Y-10625952D01*
X17427619Y-10616429D01*
X17418095Y-10597381D01*
X17408571Y-10559286D01*
X17408571Y-10511667D01*
X17418095Y-10473571D01*
X17427619Y-10454524D01*
X17437143Y-10445000D01*
X17456190Y-10435476D01*
X17589524Y-10435476D02*
X17713333Y-10435476D01*
X17646667Y-10511667D01*
X17675238Y-10511667D01*
X17694286Y-10521190D01*
X17703810Y-10530714D01*
X17713333Y-10549762D01*
X17713333Y-10597381D01*
X17703810Y-10616429D01*
X17694286Y-10625952D01*
X17675238Y-10635476D01*
X17618095Y-10635476D01*
X17599048Y-10625952D01*
X17589524Y-10616429D01*
X17903810Y-10635476D02*
X17789524Y-10635476D01*
X17846667Y-10635476D02*
X17846667Y-10435476D01*
X17827619Y-10464048D01*
X17808571Y-10483095D01*
X17789524Y-10492619D01*
X18084762Y-10435476D02*
X17989524Y-10435476D01*
X17980000Y-10530714D01*
X17989524Y-10521190D01*
X18008571Y-10511667D01*
X18056190Y-10511667D01*
X18075238Y-10521190D01*
X18084762Y-10530714D01*
X18094286Y-10549762D01*
X18094286Y-10597381D01*
X18084762Y-10616429D01*
X18075238Y-10625952D01*
X18056190Y-10635476D01*
X18008571Y-10635476D01*
X17989524Y-10625952D01*
X17980000Y-10616429D01*
X18170476Y-10435476D02*
X18170476Y-10473571D01*
X18246667Y-10435476D02*
X18246667Y-10473571D01*
X18541905Y-10711667D02*
X18532381Y-10702143D01*
X18513333Y-10673571D01*
X18503810Y-10654524D01*
X18494286Y-10625952D01*
X18484762Y-10578333D01*
X18484762Y-10540238D01*
X18494286Y-10492619D01*
X18503810Y-10464048D01*
X18513333Y-10445000D01*
X18532381Y-10416429D01*
X18541905Y-10406905D01*
X18646667Y-10521190D02*
X18627619Y-10511667D01*
X18618095Y-10502143D01*
X18608571Y-10483095D01*
X18608571Y-10473571D01*
X18618095Y-10454524D01*
X18627619Y-10445000D01*
X18646667Y-10435476D01*
X18684762Y-10435476D01*
X18703810Y-10445000D01*
X18713333Y-10454524D01*
X18722857Y-10473571D01*
X18722857Y-10483095D01*
X18713333Y-10502143D01*
X18703810Y-10511667D01*
X18684762Y-10521190D01*
X18646667Y-10521190D01*
X18627619Y-10530714D01*
X18618095Y-10540238D01*
X18608571Y-10559286D01*
X18608571Y-10597381D01*
X18618095Y-10616429D01*
X18627619Y-10625952D01*
X18646667Y-10635476D01*
X18684762Y-10635476D01*
X18703810Y-10625952D01*
X18713333Y-10616429D01*
X18722857Y-10597381D01*
X18722857Y-10559286D01*
X18713333Y-10540238D01*
X18703810Y-10530714D01*
X18684762Y-10521190D01*
X18960952Y-10635476D02*
X18960952Y-10435476D01*
X19046667Y-10635476D02*
X19046667Y-10530714D01*
X19037143Y-10511667D01*
X19018095Y-10502143D01*
X18989524Y-10502143D01*
X18970476Y-10511667D01*
X18960952Y-10521190D01*
X19170476Y-10635476D02*
X19151429Y-10625952D01*
X19141905Y-10616429D01*
X19132381Y-10597381D01*
X19132381Y-10540238D01*
X19141905Y-10521190D01*
X19151429Y-10511667D01*
X19170476Y-10502143D01*
X19199048Y-10502143D01*
X19218095Y-10511667D01*
X19227619Y-10521190D01*
X19237143Y-10540238D01*
X19237143Y-10597381D01*
X19227619Y-10616429D01*
X19218095Y-10625952D01*
X19199048Y-10635476D01*
X19170476Y-10635476D01*
X19351429Y-10635476D02*
X19332381Y-10625952D01*
X19322857Y-10606905D01*
X19322857Y-10435476D01*
X19503810Y-10625952D02*
X19484762Y-10635476D01*
X19446667Y-10635476D01*
X19427619Y-10625952D01*
X19418095Y-10606905D01*
X19418095Y-10530714D01*
X19427619Y-10511667D01*
X19446667Y-10502143D01*
X19484762Y-10502143D01*
X19503810Y-10511667D01*
X19513333Y-10530714D01*
X19513333Y-10549762D01*
X19418095Y-10568810D01*
X19589524Y-10625952D02*
X19608571Y-10635476D01*
X19646667Y-10635476D01*
X19665714Y-10625952D01*
X19675238Y-10606905D01*
X19675238Y-10597381D01*
X19665714Y-10578333D01*
X19646667Y-10568810D01*
X19618095Y-10568810D01*
X19599048Y-10559286D01*
X19589524Y-10540238D01*
X19589524Y-10530714D01*
X19599048Y-10511667D01*
X19618095Y-10502143D01*
X19646667Y-10502143D01*
X19665714Y-10511667D01*
X19741905Y-10711667D02*
X19751429Y-10702143D01*
X19770476Y-10673571D01*
X19780000Y-10654524D01*
X19789524Y-10625952D01*
X19799048Y-10578333D01*
X19799048Y-10540238D01*
X19789524Y-10492619D01*
X19780000Y-10464048D01*
X19770476Y-10445000D01*
X19751429Y-10416429D01*
X19741905Y-10406905D01*
D13*
X14970000Y-10809000D02*
G75*
G03*
X14970000Y-10809000I-45000J0D01*
G01*
D11*
X15265714Y-10699476D02*
X15284762Y-10699476D01*
X15303809Y-10709000D01*
X15313333Y-10718524D01*
X15322857Y-10737571D01*
X15332381Y-10775667D01*
X15332381Y-10823286D01*
X15322857Y-10861381D01*
X15313333Y-10880429D01*
X15303809Y-10889952D01*
X15284762Y-10899476D01*
X15265714Y-10899476D01*
X15246667Y-10889952D01*
X15237143Y-10880429D01*
X15227619Y-10861381D01*
X15218095Y-10823286D01*
X15218095Y-10775667D01*
X15227619Y-10737571D01*
X15237143Y-10718524D01*
X15246667Y-10709000D01*
X15265714Y-10699476D01*
X15418095Y-10880429D02*
X15427619Y-10889952D01*
X15418095Y-10899476D01*
X15408571Y-10889952D01*
X15418095Y-10880429D01*
X15418095Y-10899476D01*
X15522857Y-10899476D02*
X15560952Y-10899476D01*
X15580000Y-10889952D01*
X15589524Y-10880429D01*
X15608571Y-10851857D01*
X15618095Y-10813762D01*
X15618095Y-10737571D01*
X15608571Y-10718524D01*
X15599048Y-10709000D01*
X15580000Y-10699476D01*
X15541905Y-10699476D01*
X15522857Y-10709000D01*
X15513333Y-10718524D01*
X15503809Y-10737571D01*
X15503809Y-10785190D01*
X15513333Y-10804238D01*
X15522857Y-10813762D01*
X15541905Y-10823286D01*
X15580000Y-10823286D01*
X15599048Y-10813762D01*
X15608571Y-10804238D01*
X15618095Y-10785190D01*
X15741905Y-10699476D02*
X15760952Y-10699476D01*
X15780000Y-10709000D01*
X15789524Y-10718524D01*
X15799048Y-10737571D01*
X15808571Y-10775667D01*
X15808571Y-10823286D01*
X15799048Y-10861381D01*
X15789524Y-10880429D01*
X15780000Y-10889952D01*
X15760952Y-10899476D01*
X15741905Y-10899476D01*
X15722857Y-10889952D01*
X15713333Y-10880429D01*
X15703809Y-10861381D01*
X15694286Y-10823286D01*
X15694286Y-10775667D01*
X15703809Y-10737571D01*
X15713333Y-10718524D01*
X15722857Y-10709000D01*
X15741905Y-10699476D01*
X15932381Y-10699476D02*
X15951428Y-10699476D01*
X15970476Y-10709000D01*
X15980000Y-10718524D01*
X15989524Y-10737571D01*
X15999048Y-10775667D01*
X15999048Y-10823286D01*
X15989524Y-10861381D01*
X15980000Y-10880429D01*
X15970476Y-10889952D01*
X15951428Y-10899476D01*
X15932381Y-10899476D01*
X15913333Y-10889952D01*
X15903809Y-10880429D01*
X15894286Y-10861381D01*
X15884762Y-10823286D01*
X15884762Y-10775667D01*
X15894286Y-10737571D01*
X15903809Y-10718524D01*
X15913333Y-10709000D01*
X15932381Y-10699476D01*
X16084762Y-10899476D02*
X16084762Y-10766143D01*
X16084762Y-10785190D02*
X16094286Y-10775667D01*
X16113333Y-10766143D01*
X16141905Y-10766143D01*
X16160952Y-10775667D01*
X16170476Y-10794714D01*
X16170476Y-10899476D01*
X16170476Y-10794714D02*
X16180000Y-10775667D01*
X16199048Y-10766143D01*
X16227619Y-10766143D01*
X16246667Y-10775667D01*
X16256190Y-10794714D01*
X16256190Y-10899476D01*
X16351428Y-10899476D02*
X16351428Y-10766143D01*
X16351428Y-10785190D02*
X16360952Y-10775667D01*
X16380000Y-10766143D01*
X16408571Y-10766143D01*
X16427619Y-10775667D01*
X16437143Y-10794714D01*
X16437143Y-10899476D01*
X16437143Y-10794714D02*
X16446667Y-10775667D01*
X16465714Y-10766143D01*
X16494286Y-10766143D01*
X16513333Y-10775667D01*
X16522857Y-10794714D01*
X16522857Y-10899476D01*
X16913333Y-10689952D02*
X16741905Y-10947095D01*
X17170476Y-10699476D02*
X17189524Y-10699476D01*
X17208571Y-10709000D01*
X17218095Y-10718524D01*
X17227619Y-10737571D01*
X17237143Y-10775667D01*
X17237143Y-10823286D01*
X17227619Y-10861381D01*
X17218095Y-10880429D01*
X17208571Y-10889952D01*
X17189524Y-10899476D01*
X17170476Y-10899476D01*
X17151429Y-10889952D01*
X17141905Y-10880429D01*
X17132381Y-10861381D01*
X17122857Y-10823286D01*
X17122857Y-10775667D01*
X17132381Y-10737571D01*
X17141905Y-10718524D01*
X17151429Y-10709000D01*
X17170476Y-10699476D01*
X17322857Y-10880429D02*
X17332381Y-10889952D01*
X17322857Y-10899476D01*
X17313333Y-10889952D01*
X17322857Y-10880429D01*
X17322857Y-10899476D01*
X17456190Y-10699476D02*
X17475238Y-10699476D01*
X17494286Y-10709000D01*
X17503810Y-10718524D01*
X17513333Y-10737571D01*
X17522857Y-10775667D01*
X17522857Y-10823286D01*
X17513333Y-10861381D01*
X17503810Y-10880429D01*
X17494286Y-10889952D01*
X17475238Y-10899476D01*
X17456190Y-10899476D01*
X17437143Y-10889952D01*
X17427619Y-10880429D01*
X17418095Y-10861381D01*
X17408571Y-10823286D01*
X17408571Y-10775667D01*
X17418095Y-10737571D01*
X17427619Y-10718524D01*
X17437143Y-10709000D01*
X17456190Y-10699476D01*
X17589524Y-10699476D02*
X17713333Y-10699476D01*
X17646667Y-10775667D01*
X17675238Y-10775667D01*
X17694286Y-10785190D01*
X17703810Y-10794714D01*
X17713333Y-10813762D01*
X17713333Y-10861381D01*
X17703810Y-10880429D01*
X17694286Y-10889952D01*
X17675238Y-10899476D01*
X17618095Y-10899476D01*
X17599048Y-10889952D01*
X17589524Y-10880429D01*
X17894286Y-10699476D02*
X17799048Y-10699476D01*
X17789524Y-10794714D01*
X17799048Y-10785190D01*
X17818095Y-10775667D01*
X17865714Y-10775667D01*
X17884762Y-10785190D01*
X17894286Y-10794714D01*
X17903810Y-10813762D01*
X17903810Y-10861381D01*
X17894286Y-10880429D01*
X17884762Y-10889952D01*
X17865714Y-10899476D01*
X17818095Y-10899476D01*
X17799048Y-10889952D01*
X17789524Y-10880429D01*
X18075238Y-10766143D02*
X18075238Y-10899476D01*
X18027619Y-10689952D02*
X17980000Y-10832810D01*
X18103810Y-10832810D01*
X18170476Y-10699476D02*
X18170476Y-10737571D01*
X18246667Y-10699476D02*
X18246667Y-10737571D01*
X18541905Y-10975667D02*
X18532381Y-10966143D01*
X18513333Y-10937571D01*
X18503810Y-10918524D01*
X18494286Y-10889952D01*
X18484762Y-10842333D01*
X18484762Y-10804238D01*
X18494286Y-10756619D01*
X18503810Y-10728048D01*
X18513333Y-10709000D01*
X18532381Y-10680429D01*
X18541905Y-10670905D01*
X18703810Y-10766143D02*
X18703810Y-10899476D01*
X18656190Y-10689952D02*
X18608571Y-10832810D01*
X18732381Y-10832810D01*
X18960952Y-10899476D02*
X18960952Y-10699476D01*
X19046667Y-10899476D02*
X19046667Y-10794714D01*
X19037143Y-10775667D01*
X19018095Y-10766143D01*
X18989524Y-10766143D01*
X18970476Y-10775667D01*
X18960952Y-10785190D01*
X19170476Y-10899476D02*
X19151429Y-10889952D01*
X19141905Y-10880429D01*
X19132381Y-10861381D01*
X19132381Y-10804238D01*
X19141905Y-10785190D01*
X19151429Y-10775667D01*
X19170476Y-10766143D01*
X19199048Y-10766143D01*
X19218095Y-10775667D01*
X19227619Y-10785190D01*
X19237143Y-10804238D01*
X19237143Y-10861381D01*
X19227619Y-10880429D01*
X19218095Y-10889952D01*
X19199048Y-10899476D01*
X19170476Y-10899476D01*
X19351429Y-10899476D02*
X19332381Y-10889952D01*
X19322857Y-10870905D01*
X19322857Y-10699476D01*
X19503810Y-10889952D02*
X19484762Y-10899476D01*
X19446667Y-10899476D01*
X19427619Y-10889952D01*
X19418095Y-10870905D01*
X19418095Y-10794714D01*
X19427619Y-10775667D01*
X19446667Y-10766143D01*
X19484762Y-10766143D01*
X19503810Y-10775667D01*
X19513333Y-10794714D01*
X19513333Y-10813762D01*
X19418095Y-10832810D01*
X19589524Y-10889952D02*
X19608571Y-10899476D01*
X19646667Y-10899476D01*
X19665714Y-10889952D01*
X19675238Y-10870905D01*
X19675238Y-10861381D01*
X19665714Y-10842333D01*
X19646667Y-10832810D01*
X19618095Y-10832810D01*
X19599048Y-10823286D01*
X19589524Y-10804238D01*
X19589524Y-10794714D01*
X19599048Y-10775667D01*
X19618095Y-10766143D01*
X19646667Y-10766143D01*
X19665714Y-10775667D01*
X19741905Y-10975667D02*
X19751429Y-10966143D01*
X19770476Y-10937571D01*
X19780000Y-10918524D01*
X19789524Y-10889952D01*
X19799048Y-10842333D01*
X19799048Y-10804238D01*
X19789524Y-10756619D01*
X19780000Y-10728048D01*
X19770476Y-10709000D01*
X19751429Y-10680429D01*
X19741905Y-10670905D01*
D10*
X14920000Y-11023000D02*
X14920000Y-11123000D01*
X14870000Y-11073000D02*
X14970000Y-11073000D01*
D11*
X15332381Y-11163476D02*
X15218095Y-11163476D01*
X15275238Y-11163476D02*
X15275238Y-10963476D01*
X15256190Y-10992048D01*
X15237143Y-11011095D01*
X15218095Y-11020619D01*
X15418095Y-11144429D02*
X15427619Y-11153952D01*
X15418095Y-11163476D01*
X15408571Y-11153952D01*
X15418095Y-11144429D01*
X15418095Y-11163476D01*
X15551428Y-10963476D02*
X15570476Y-10963476D01*
X15589524Y-10973000D01*
X15599048Y-10982524D01*
X15608571Y-11001571D01*
X15618095Y-11039667D01*
X15618095Y-11087286D01*
X15608571Y-11125381D01*
X15599048Y-11144429D01*
X15589524Y-11153952D01*
X15570476Y-11163476D01*
X15551428Y-11163476D01*
X15532381Y-11153952D01*
X15522857Y-11144429D01*
X15513333Y-11125381D01*
X15503809Y-11087286D01*
X15503809Y-11039667D01*
X15513333Y-11001571D01*
X15522857Y-10982524D01*
X15532381Y-10973000D01*
X15551428Y-10963476D01*
X15741905Y-10963476D02*
X15760952Y-10963476D01*
X15780000Y-10973000D01*
X15789524Y-10982524D01*
X15799048Y-11001571D01*
X15808571Y-11039667D01*
X15808571Y-11087286D01*
X15799048Y-11125381D01*
X15789524Y-11144429D01*
X15780000Y-11153952D01*
X15760952Y-11163476D01*
X15741905Y-11163476D01*
X15722857Y-11153952D01*
X15713333Y-11144429D01*
X15703809Y-11125381D01*
X15694286Y-11087286D01*
X15694286Y-11039667D01*
X15703809Y-11001571D01*
X15713333Y-10982524D01*
X15722857Y-10973000D01*
X15741905Y-10963476D01*
X15932381Y-10963476D02*
X15951428Y-10963476D01*
X15970476Y-10973000D01*
X15980000Y-10982524D01*
X15989524Y-11001571D01*
X15999048Y-11039667D01*
X15999048Y-11087286D01*
X15989524Y-11125381D01*
X15980000Y-11144429D01*
X15970476Y-11153952D01*
X15951428Y-11163476D01*
X15932381Y-11163476D01*
X15913333Y-11153952D01*
X15903809Y-11144429D01*
X15894286Y-11125381D01*
X15884762Y-11087286D01*
X15884762Y-11039667D01*
X15894286Y-11001571D01*
X15903809Y-10982524D01*
X15913333Y-10973000D01*
X15932381Y-10963476D01*
X16084762Y-11163476D02*
X16084762Y-11030143D01*
X16084762Y-11049190D02*
X16094286Y-11039667D01*
X16113333Y-11030143D01*
X16141905Y-11030143D01*
X16160952Y-11039667D01*
X16170476Y-11058714D01*
X16170476Y-11163476D01*
X16170476Y-11058714D02*
X16180000Y-11039667D01*
X16199048Y-11030143D01*
X16227619Y-11030143D01*
X16246667Y-11039667D01*
X16256190Y-11058714D01*
X16256190Y-11163476D01*
X16351428Y-11163476D02*
X16351428Y-11030143D01*
X16351428Y-11049190D02*
X16360952Y-11039667D01*
X16380000Y-11030143D01*
X16408571Y-11030143D01*
X16427619Y-11039667D01*
X16437143Y-11058714D01*
X16437143Y-11163476D01*
X16437143Y-11058714D02*
X16446667Y-11039667D01*
X16465714Y-11030143D01*
X16494286Y-11030143D01*
X16513333Y-11039667D01*
X16522857Y-11058714D01*
X16522857Y-11163476D01*
X16913333Y-10953952D02*
X16741905Y-11211095D01*
X17170476Y-10963476D02*
X17189524Y-10963476D01*
X17208571Y-10973000D01*
X17218095Y-10982524D01*
X17227619Y-11001571D01*
X17237143Y-11039667D01*
X17237143Y-11087286D01*
X17227619Y-11125381D01*
X17218095Y-11144429D01*
X17208571Y-11153952D01*
X17189524Y-11163476D01*
X17170476Y-11163476D01*
X17151429Y-11153952D01*
X17141905Y-11144429D01*
X17132381Y-11125381D01*
X17122857Y-11087286D01*
X17122857Y-11039667D01*
X17132381Y-11001571D01*
X17141905Y-10982524D01*
X17151429Y-10973000D01*
X17170476Y-10963476D01*
X17322857Y-11144429D02*
X17332381Y-11153952D01*
X17322857Y-11163476D01*
X17313333Y-11153952D01*
X17322857Y-11144429D01*
X17322857Y-11163476D01*
X17456190Y-10963476D02*
X17475238Y-10963476D01*
X17494286Y-10973000D01*
X17503810Y-10982524D01*
X17513333Y-11001571D01*
X17522857Y-11039667D01*
X17522857Y-11087286D01*
X17513333Y-11125381D01*
X17503810Y-11144429D01*
X17494286Y-11153952D01*
X17475238Y-11163476D01*
X17456190Y-11163476D01*
X17437143Y-11153952D01*
X17427619Y-11144429D01*
X17418095Y-11125381D01*
X17408571Y-11087286D01*
X17408571Y-11039667D01*
X17418095Y-11001571D01*
X17427619Y-10982524D01*
X17437143Y-10973000D01*
X17456190Y-10963476D01*
X17589524Y-10963476D02*
X17713333Y-10963476D01*
X17646667Y-11039667D01*
X17675238Y-11039667D01*
X17694286Y-11049190D01*
X17703810Y-11058714D01*
X17713333Y-11077762D01*
X17713333Y-11125381D01*
X17703810Y-11144429D01*
X17694286Y-11153952D01*
X17675238Y-11163476D01*
X17618095Y-11163476D01*
X17599048Y-11153952D01*
X17589524Y-11144429D01*
X17808571Y-11163476D02*
X17846667Y-11163476D01*
X17865714Y-11153952D01*
X17875238Y-11144429D01*
X17894286Y-11115857D01*
X17903810Y-11077762D01*
X17903810Y-11001571D01*
X17894286Y-10982524D01*
X17884762Y-10973000D01*
X17865714Y-10963476D01*
X17827619Y-10963476D01*
X17808571Y-10973000D01*
X17799048Y-10982524D01*
X17789524Y-11001571D01*
X17789524Y-11049190D01*
X17799048Y-11068238D01*
X17808571Y-11077762D01*
X17827619Y-11087286D01*
X17865714Y-11087286D01*
X17884762Y-11077762D01*
X17894286Y-11068238D01*
X17903810Y-11049190D01*
X18075238Y-11030143D02*
X18075238Y-11163476D01*
X18027619Y-10953952D02*
X17980000Y-11096810D01*
X18103810Y-11096810D01*
X18170476Y-10963476D02*
X18170476Y-11001571D01*
X18246667Y-10963476D02*
X18246667Y-11001571D01*
X18541905Y-11239667D02*
X18532381Y-11230143D01*
X18513333Y-11201571D01*
X18503810Y-11182524D01*
X18494286Y-11153952D01*
X18484762Y-11106333D01*
X18484762Y-11068238D01*
X18494286Y-11020619D01*
X18503810Y-10992048D01*
X18513333Y-10973000D01*
X18532381Y-10944429D01*
X18541905Y-10934905D01*
X18722857Y-11163476D02*
X18608571Y-11163476D01*
X18665714Y-11163476D02*
X18665714Y-10963476D01*
X18646667Y-10992048D01*
X18627619Y-11011095D01*
X18608571Y-11020619D01*
X18894286Y-10963476D02*
X18856190Y-10963476D01*
X18837143Y-10973000D01*
X18827619Y-10982524D01*
X18808571Y-11011095D01*
X18799048Y-11049190D01*
X18799048Y-11125381D01*
X18808571Y-11144429D01*
X18818095Y-11153952D01*
X18837143Y-11163476D01*
X18875238Y-11163476D01*
X18894286Y-11153952D01*
X18903810Y-11144429D01*
X18913333Y-11125381D01*
X18913333Y-11077762D01*
X18903810Y-11058714D01*
X18894286Y-11049190D01*
X18875238Y-11039667D01*
X18837143Y-11039667D01*
X18818095Y-11049190D01*
X18808571Y-11058714D01*
X18799048Y-11077762D01*
X19151429Y-11163476D02*
X19151429Y-10963476D01*
X19237143Y-11163476D02*
X19237143Y-11058714D01*
X19227619Y-11039667D01*
X19208571Y-11030143D01*
X19180000Y-11030143D01*
X19160952Y-11039667D01*
X19151429Y-11049190D01*
X19360952Y-11163476D02*
X19341905Y-11153952D01*
X19332381Y-11144429D01*
X19322857Y-11125381D01*
X19322857Y-11068238D01*
X19332381Y-11049190D01*
X19341905Y-11039667D01*
X19360952Y-11030143D01*
X19389524Y-11030143D01*
X19408571Y-11039667D01*
X19418095Y-11049190D01*
X19427619Y-11068238D01*
X19427619Y-11125381D01*
X19418095Y-11144429D01*
X19408571Y-11153952D01*
X19389524Y-11163476D01*
X19360952Y-11163476D01*
X19541905Y-11163476D02*
X19522857Y-11153952D01*
X19513333Y-11134905D01*
X19513333Y-10963476D01*
X19694286Y-11153952D02*
X19675238Y-11163476D01*
X19637143Y-11163476D01*
X19618095Y-11153952D01*
X19608571Y-11134905D01*
X19608571Y-11058714D01*
X19618095Y-11039667D01*
X19637143Y-11030143D01*
X19675238Y-11030143D01*
X19694286Y-11039667D01*
X19703810Y-11058714D01*
X19703810Y-11077762D01*
X19608571Y-11096810D01*
X19780000Y-11153952D02*
X19799048Y-11163476D01*
X19837143Y-11163476D01*
X19856190Y-11153952D01*
X19865714Y-11134905D01*
X19865714Y-11125381D01*
X19856190Y-11106333D01*
X19837143Y-11096810D01*
X19808571Y-11096810D01*
X19789524Y-11087286D01*
X19780000Y-11068238D01*
X19780000Y-11058714D01*
X19789524Y-11039667D01*
X19808571Y-11030143D01*
X19837143Y-11030143D01*
X19856190Y-11039667D01*
X19932381Y-11239667D02*
X19941905Y-11230143D01*
X19960952Y-11201571D01*
X19970476Y-11182524D01*
X19980000Y-11153952D01*
X19989524Y-11106333D01*
X19989524Y-11068238D01*
X19980000Y-11020619D01*
X19970476Y-10992048D01*
X19960952Y-10973000D01*
X19941905Y-10944429D01*
X19932381Y-10934905D01*
D14*
X14953891Y-11375891D02*
X14953891Y-11298109D01*
X14876109Y-11298109D01*
X14876109Y-11375891D01*
X14953891Y-11375891D01*
D11*
X15332381Y-11427476D02*
X15218095Y-11427476D01*
X15275238Y-11427476D02*
X15275238Y-11227476D01*
X15256190Y-11256048D01*
X15237143Y-11275095D01*
X15218095Y-11284619D01*
X15418095Y-11408428D02*
X15427619Y-11417952D01*
X15418095Y-11427476D01*
X15408571Y-11417952D01*
X15418095Y-11408428D01*
X15418095Y-11427476D01*
X15618095Y-11427476D02*
X15503809Y-11427476D01*
X15560952Y-11427476D02*
X15560952Y-11227476D01*
X15541905Y-11256048D01*
X15522857Y-11275095D01*
X15503809Y-11284619D01*
X15741905Y-11227476D02*
X15760952Y-11227476D01*
X15780000Y-11237000D01*
X15789524Y-11246524D01*
X15799048Y-11265571D01*
X15808571Y-11303667D01*
X15808571Y-11351286D01*
X15799048Y-11389381D01*
X15789524Y-11408428D01*
X15780000Y-11417952D01*
X15760952Y-11427476D01*
X15741905Y-11427476D01*
X15722857Y-11417952D01*
X15713333Y-11408428D01*
X15703809Y-11389381D01*
X15694286Y-11351286D01*
X15694286Y-11303667D01*
X15703809Y-11265571D01*
X15713333Y-11246524D01*
X15722857Y-11237000D01*
X15741905Y-11227476D01*
X15932381Y-11227476D02*
X15951428Y-11227476D01*
X15970476Y-11237000D01*
X15980000Y-11246524D01*
X15989524Y-11265571D01*
X15999048Y-11303667D01*
X15999048Y-11351286D01*
X15989524Y-11389381D01*
X15980000Y-11408428D01*
X15970476Y-11417952D01*
X15951428Y-11427476D01*
X15932381Y-11427476D01*
X15913333Y-11417952D01*
X15903809Y-11408428D01*
X15894286Y-11389381D01*
X15884762Y-11351286D01*
X15884762Y-11303667D01*
X15894286Y-11265571D01*
X15903809Y-11246524D01*
X15913333Y-11237000D01*
X15932381Y-11227476D01*
X16084762Y-11427476D02*
X16084762Y-11294143D01*
X16084762Y-11313190D02*
X16094286Y-11303667D01*
X16113333Y-11294143D01*
X16141905Y-11294143D01*
X16160952Y-11303667D01*
X16170476Y-11322714D01*
X16170476Y-11427476D01*
X16170476Y-11322714D02*
X16180000Y-11303667D01*
X16199048Y-11294143D01*
X16227619Y-11294143D01*
X16246667Y-11303667D01*
X16256190Y-11322714D01*
X16256190Y-11427476D01*
X16351428Y-11427476D02*
X16351428Y-11294143D01*
X16351428Y-11313190D02*
X16360952Y-11303667D01*
X16380000Y-11294143D01*
X16408571Y-11294143D01*
X16427619Y-11303667D01*
X16437143Y-11322714D01*
X16437143Y-11427476D01*
X16437143Y-11322714D02*
X16446667Y-11303667D01*
X16465714Y-11294143D01*
X16494286Y-11294143D01*
X16513333Y-11303667D01*
X16522857Y-11322714D01*
X16522857Y-11427476D01*
X16913333Y-11217952D02*
X16741905Y-11475095D01*
X17170476Y-11227476D02*
X17189524Y-11227476D01*
X17208571Y-11237000D01*
X17218095Y-11246524D01*
X17227619Y-11265571D01*
X17237143Y-11303667D01*
X17237143Y-11351286D01*
X17227619Y-11389381D01*
X17218095Y-11408428D01*
X17208571Y-11417952D01*
X17189524Y-11427476D01*
X17170476Y-11427476D01*
X17151429Y-11417952D01*
X17141905Y-11408428D01*
X17132381Y-11389381D01*
X17122857Y-11351286D01*
X17122857Y-11303667D01*
X17132381Y-11265571D01*
X17141905Y-11246524D01*
X17151429Y-11237000D01*
X17170476Y-11227476D01*
X17322857Y-11408428D02*
X17332381Y-11417952D01*
X17322857Y-11427476D01*
X17313333Y-11417952D01*
X17322857Y-11408428D01*
X17322857Y-11427476D01*
X17456190Y-11227476D02*
X17475238Y-11227476D01*
X17494286Y-11237000D01*
X17503810Y-11246524D01*
X17513333Y-11265571D01*
X17522857Y-11303667D01*
X17522857Y-11351286D01*
X17513333Y-11389381D01*
X17503810Y-11408428D01*
X17494286Y-11417952D01*
X17475238Y-11427476D01*
X17456190Y-11427476D01*
X17437143Y-11417952D01*
X17427619Y-11408428D01*
X17418095Y-11389381D01*
X17408571Y-11351286D01*
X17408571Y-11303667D01*
X17418095Y-11265571D01*
X17427619Y-11246524D01*
X17437143Y-11237000D01*
X17456190Y-11227476D01*
X17694286Y-11294143D02*
X17694286Y-11427476D01*
X17646667Y-11217952D02*
X17599048Y-11360809D01*
X17722857Y-11360809D01*
X17780000Y-11227476D02*
X17903810Y-11227476D01*
X17837143Y-11303667D01*
X17865714Y-11303667D01*
X17884762Y-11313190D01*
X17894286Y-11322714D01*
X17903810Y-11341762D01*
X17903810Y-11389381D01*
X17894286Y-11408428D01*
X17884762Y-11417952D01*
X17865714Y-11427476D01*
X17808571Y-11427476D01*
X17789524Y-11417952D01*
X17780000Y-11408428D01*
X17970476Y-11227476D02*
X18094286Y-11227476D01*
X18027619Y-11303667D01*
X18056190Y-11303667D01*
X18075238Y-11313190D01*
X18084762Y-11322714D01*
X18094286Y-11341762D01*
X18094286Y-11389381D01*
X18084762Y-11408428D01*
X18075238Y-11417952D01*
X18056190Y-11427476D01*
X17999048Y-11427476D01*
X17980000Y-11417952D01*
X17970476Y-11408428D01*
X18170476Y-11227476D02*
X18170476Y-11265571D01*
X18246667Y-11227476D02*
X18246667Y-11265571D01*
X18541905Y-11503667D02*
X18532381Y-11494143D01*
X18513333Y-11465571D01*
X18503810Y-11446524D01*
X18494286Y-11417952D01*
X18484762Y-11370333D01*
X18484762Y-11332238D01*
X18494286Y-11284619D01*
X18503810Y-11256048D01*
X18513333Y-11237000D01*
X18532381Y-11208428D01*
X18541905Y-11198905D01*
X18599048Y-11227476D02*
X18722857Y-11227476D01*
X18656190Y-11303667D01*
X18684762Y-11303667D01*
X18703810Y-11313190D01*
X18713333Y-11322714D01*
X18722857Y-11341762D01*
X18722857Y-11389381D01*
X18713333Y-11408428D01*
X18703810Y-11417952D01*
X18684762Y-11427476D01*
X18627619Y-11427476D01*
X18608571Y-11417952D01*
X18599048Y-11408428D01*
X18960952Y-11427476D02*
X18960952Y-11227476D01*
X19046667Y-11427476D02*
X19046667Y-11322714D01*
X19037143Y-11303667D01*
X19018095Y-11294143D01*
X18989524Y-11294143D01*
X18970476Y-11303667D01*
X18960952Y-11313190D01*
X19170476Y-11427476D02*
X19151429Y-11417952D01*
X19141905Y-11408428D01*
X19132381Y-11389381D01*
X19132381Y-11332238D01*
X19141905Y-11313190D01*
X19151429Y-11303667D01*
X19170476Y-11294143D01*
X19199048Y-11294143D01*
X19218095Y-11303667D01*
X19227619Y-11313190D01*
X19237143Y-11332238D01*
X19237143Y-11389381D01*
X19227619Y-11408428D01*
X19218095Y-11417952D01*
X19199048Y-11427476D01*
X19170476Y-11427476D01*
X19351429Y-11427476D02*
X19332381Y-11417952D01*
X19322857Y-11398905D01*
X19322857Y-11227476D01*
X19503810Y-11417952D02*
X19484762Y-11427476D01*
X19446667Y-11427476D01*
X19427619Y-11417952D01*
X19418095Y-11398905D01*
X19418095Y-11322714D01*
X19427619Y-11303667D01*
X19446667Y-11294143D01*
X19484762Y-11294143D01*
X19503810Y-11303667D01*
X19513333Y-11322714D01*
X19513333Y-11341762D01*
X19418095Y-11360809D01*
X19589524Y-11417952D02*
X19608571Y-11427476D01*
X19646667Y-11427476D01*
X19665714Y-11417952D01*
X19675238Y-11398905D01*
X19675238Y-11389381D01*
X19665714Y-11370333D01*
X19646667Y-11360809D01*
X19618095Y-11360809D01*
X19599048Y-11351286D01*
X19589524Y-11332238D01*
X19589524Y-11322714D01*
X19599048Y-11303667D01*
X19618095Y-11294143D01*
X19646667Y-11294143D01*
X19665714Y-11303667D01*
X19741905Y-11503667D02*
X19751429Y-11494143D01*
X19770476Y-11465571D01*
X19780000Y-11446524D01*
X19789524Y-11417952D01*
X19799048Y-11370333D01*
X19799048Y-11332238D01*
X19789524Y-11284619D01*
X19780000Y-11256048D01*
X19770476Y-11237000D01*
X19751429Y-11208428D01*
X19741905Y-11198905D01*
M02*
