%TF.GenerationSoftware,KiCad,Pcbnew,(6.0.10)*%
%TF.CreationDate,2023-01-21T16:14:35+01:00*%
%TF.ProjectId,MS 5V for Powr Bus,4d532035-5620-4666-9f72-20506f777220,1.0*%
%TF.SameCoordinates,Original*%
%TF.FileFunction,Drillmap*%
%TF.FilePolarity,Positive*%
%FSLAX45Y45*%
G04 Gerber Fmt 4.5, Leading zero omitted, Abs format (unit mm)*
G04 Created by KiCad (PCBNEW (6.0.10)) date 2023-01-21 16:14:35*
%MOMM*%
%LPD*%
G01*
G04 APERTURE LIST*
%ADD10C,0.100000*%
%ADD11C,0.200000*%
G04 APERTURE END LIST*
D10*
X17850000Y-9900000D02*
X14975000Y-9900000D01*
X14975000Y-9900000D02*
X14975000Y-7500000D01*
X17850000Y-7500000D02*
X17850000Y-9900000D01*
X14975000Y-7500000D02*
X17850000Y-7500000D01*
D11*
X15227619Y-10215476D02*
X15227619Y-10015476D01*
X15275238Y-10015476D01*
X15303809Y-10025000D01*
X15322857Y-10044048D01*
X15332381Y-10063095D01*
X15341905Y-10101190D01*
X15341905Y-10129762D01*
X15332381Y-10167857D01*
X15322857Y-10186905D01*
X15303809Y-10205952D01*
X15275238Y-10215476D01*
X15227619Y-10215476D01*
X15427619Y-10215476D02*
X15427619Y-10082143D01*
X15427619Y-10120238D02*
X15437143Y-10101190D01*
X15446667Y-10091667D01*
X15465714Y-10082143D01*
X15484762Y-10082143D01*
X15551428Y-10215476D02*
X15551428Y-10082143D01*
X15551428Y-10015476D02*
X15541905Y-10025000D01*
X15551428Y-10034524D01*
X15560952Y-10025000D01*
X15551428Y-10015476D01*
X15551428Y-10034524D01*
X15675238Y-10215476D02*
X15656190Y-10205952D01*
X15646667Y-10186905D01*
X15646667Y-10015476D01*
X15780000Y-10215476D02*
X15760952Y-10205952D01*
X15751428Y-10186905D01*
X15751428Y-10015476D01*
X16008571Y-10215476D02*
X16008571Y-10015476D01*
X16075238Y-10158333D01*
X16141905Y-10015476D01*
X16141905Y-10215476D01*
X16322857Y-10215476D02*
X16322857Y-10110714D01*
X16313333Y-10091667D01*
X16294286Y-10082143D01*
X16256190Y-10082143D01*
X16237143Y-10091667D01*
X16322857Y-10205952D02*
X16303809Y-10215476D01*
X16256190Y-10215476D01*
X16237143Y-10205952D01*
X16227619Y-10186905D01*
X16227619Y-10167857D01*
X16237143Y-10148810D01*
X16256190Y-10139286D01*
X16303809Y-10139286D01*
X16322857Y-10129762D01*
X16418095Y-10082143D02*
X16418095Y-10282143D01*
X16418095Y-10091667D02*
X16437143Y-10082143D01*
X16475238Y-10082143D01*
X16494286Y-10091667D01*
X16503809Y-10101190D01*
X16513333Y-10120238D01*
X16513333Y-10177381D01*
X16503809Y-10196429D01*
X16494286Y-10205952D01*
X16475238Y-10215476D01*
X16437143Y-10215476D01*
X16418095Y-10205952D01*
X16599048Y-10196429D02*
X16608571Y-10205952D01*
X16599048Y-10215476D01*
X16589524Y-10205952D01*
X16599048Y-10196429D01*
X16599048Y-10215476D01*
X16599048Y-10091667D02*
X16608571Y-10101190D01*
X16599048Y-10110714D01*
X16589524Y-10101190D01*
X16599048Y-10091667D01*
X16599048Y-10110714D01*
M02*
