G04 #@! TF.GenerationSoftware,KiCad,Pcbnew,(6.0.10)*
G04 #@! TF.CreationDate,2023-01-21T16:14:00+01:00*
G04 #@! TF.ProjectId,MS 5V for Powr Bus,4d532035-5620-4666-9f72-20506f777220,1.0*
G04 #@! TF.SameCoordinates,Original*
G04 #@! TF.FileFunction,Copper,L1,Top*
G04 #@! TF.FilePolarity,Positive*
%FSLAX46Y46*%
G04 Gerber Fmt 4.6, Leading zero omitted, Abs format (unit mm)*
G04 Created by KiCad (PCBNEW (6.0.10)) date 2023-01-21 16:14:00*
%MOMM*%
%LPD*%
G01*
G04 APERTURE LIST*
G04 #@! TA.AperFunction,ComponentPad*
%ADD10C,1.600000*%
G04 #@! TD*
G04 #@! TA.AperFunction,ComponentPad*
%ADD11O,1.600000X1.600000*%
G04 #@! TD*
G04 #@! TA.AperFunction,ComponentPad*
%ADD12R,1.600000X1.600000*%
G04 #@! TD*
G04 #@! TA.AperFunction,ComponentPad*
%ADD13R,1.800000X1.800000*%
G04 #@! TD*
G04 #@! TA.AperFunction,ComponentPad*
%ADD14C,1.800000*%
G04 #@! TD*
G04 #@! TA.AperFunction,ComponentPad*
%ADD15R,2.000000X1.905000*%
G04 #@! TD*
G04 #@! TA.AperFunction,ComponentPad*
%ADD16O,2.000000X1.905000*%
G04 #@! TD*
G04 #@! TA.AperFunction,ComponentPad*
%ADD17R,1.700000X1.700000*%
G04 #@! TD*
G04 #@! TA.AperFunction,ComponentPad*
%ADD18O,1.700000X1.700000*%
G04 #@! TD*
G04 #@! TA.AperFunction,Conductor*
%ADD19C,0.750000*%
G04 #@! TD*
G04 APERTURE END LIST*
D10*
X163830000Y-81500000D03*
D11*
X153670000Y-81500000D03*
D12*
X169250000Y-80000000D03*
D10*
X166750000Y-80000000D03*
D12*
X169250000Y-85250000D03*
D10*
X166750000Y-85250000D03*
D13*
X152500000Y-91510000D03*
D14*
X152500000Y-88970000D03*
D15*
X172750000Y-85250000D03*
D16*
X172750000Y-82710000D03*
X172750000Y-80170000D03*
D13*
X154000000Y-77500000D03*
D14*
X151460000Y-77500000D03*
D17*
X172750000Y-95250000D03*
D18*
X172750000Y-97790000D03*
X170210000Y-95250000D03*
X170210000Y-97790000D03*
X167670000Y-95250000D03*
X167670000Y-97790000D03*
X165130000Y-95250000D03*
X165130000Y-97790000D03*
X162590000Y-95250000D03*
X162590000Y-97790000D03*
X160050000Y-95250000D03*
X160050000Y-97790000D03*
X157510000Y-95250000D03*
X157510000Y-97790000D03*
X154970000Y-95250000D03*
X154970000Y-97790000D03*
D10*
X163830000Y-86000000D03*
D11*
X153670000Y-86000000D03*
D19*
X170210000Y-91790000D02*
X170500000Y-91500000D01*
X170210000Y-95250000D02*
X170210000Y-91790000D01*
X170500000Y-91500000D02*
X167750000Y-91500000D01*
X176000000Y-91500000D02*
X170500000Y-91500000D01*
X163250000Y-86000000D02*
X162590000Y-86660000D01*
X163830000Y-86000000D02*
X163250000Y-86000000D01*
X163830000Y-86000000D02*
X163830000Y-84170000D01*
X169250000Y-84500000D02*
X169250000Y-85250000D01*
X163830000Y-84170000D02*
X164500000Y-83500000D01*
X168250000Y-83500000D02*
X169250000Y-84500000D01*
X162590000Y-86660000D02*
X162590000Y-95250000D01*
X164500000Y-83500000D02*
X168250000Y-83500000D01*
X162590000Y-97790000D02*
X162590000Y-95250000D01*
X172750000Y-85250000D02*
X169250000Y-85250000D01*
X166750000Y-89500000D02*
X167670000Y-90420000D01*
X166750000Y-85250000D02*
X166750000Y-89500000D01*
X170210000Y-97790000D02*
X170210000Y-95250000D01*
X176250000Y-91250000D02*
X176000000Y-91500000D01*
X164250000Y-77500000D02*
X175500000Y-77500000D01*
X164250000Y-77500000D02*
X166750000Y-80000000D01*
X155240000Y-91510000D02*
X156000000Y-90750000D01*
X172750000Y-82710000D02*
X175710000Y-82710000D01*
X176250000Y-83250000D02*
X176250000Y-83750000D01*
X176250000Y-78250000D02*
X176250000Y-83750000D01*
X167670000Y-90420000D02*
X167670000Y-91420000D01*
X156000000Y-90750000D02*
X156000000Y-77500000D01*
X154000000Y-77500000D02*
X156000000Y-77500000D01*
X152500000Y-91510000D02*
X155240000Y-91510000D01*
X175710000Y-82710000D02*
X176250000Y-83250000D01*
X175500000Y-77500000D02*
X176250000Y-78250000D01*
X176250000Y-83750000D02*
X176250000Y-91250000D01*
X167750000Y-91500000D02*
X167670000Y-91420000D01*
X156000000Y-77500000D02*
X164250000Y-77500000D01*
X163830000Y-81500000D02*
X163830000Y-81580000D01*
X161000000Y-81500000D02*
X160050000Y-82450000D01*
X169250000Y-81000000D02*
X169250000Y-80000000D01*
X160050000Y-97790000D02*
X160050000Y-95250000D01*
X169420000Y-80170000D02*
X169250000Y-80000000D01*
X163830000Y-81500000D02*
X161000000Y-81500000D01*
X160050000Y-82450000D02*
X160050000Y-95250000D01*
X172750000Y-80170000D02*
X169420000Y-80170000D01*
X163830000Y-81580000D02*
X164250000Y-82000000D01*
X168250000Y-82000000D02*
X169250000Y-81000000D01*
X164250000Y-82000000D02*
X168250000Y-82000000D01*
X153670000Y-86000000D02*
X152750000Y-86000000D01*
X152500000Y-86250000D02*
X152500000Y-88970000D01*
X152750000Y-86000000D02*
X152500000Y-86250000D01*
X151460000Y-80460000D02*
X152500000Y-81500000D01*
X151460000Y-77500000D02*
X151460000Y-80460000D01*
X152500000Y-81500000D02*
X153670000Y-81500000D01*
M02*
