G04 #@! TF.GenerationSoftware,KiCad,Pcbnew,(6.0.10)*
G04 #@! TF.CreationDate,2023-01-21T10:22:34+01:00*
G04 #@! TF.ProjectId,MS 5V for Powr Bus,4d532035-5620-4666-9f72-20506f777220,rev?*
G04 #@! TF.SameCoordinates,Original*
G04 #@! TF.FileFunction,Legend,Bot*
G04 #@! TF.FilePolarity,Positive*
%FSLAX46Y46*%
G04 Gerber Fmt 4.6, Leading zero omitted, Abs format (unit mm)*
G04 Created by KiCad (PCBNEW (6.0.10)) date 2023-01-21 10:22:34*
%MOMM*%
%LPD*%
G01*
G04 APERTURE LIST*
%ADD10C,0.150000*%
%ADD11C,0.200000*%
%ADD12C,0.120000*%
%ADD13C,1.600000*%
%ADD14O,1.600000X1.600000*%
%ADD15R,1.600000X1.600000*%
%ADD16R,1.800000X1.800000*%
%ADD17C,1.800000*%
%ADD18R,2.000000X1.905000*%
%ADD19O,2.000000X1.905000*%
%ADD20R,1.700000X1.700000*%
%ADD21O,1.700000X1.700000*%
G04 APERTURE END LIST*
D10*
X175250000Y-93000000D02*
X176000000Y-93000000D01*
X176000000Y-93000000D02*
X176000000Y-98750000D01*
X176000000Y-98750000D02*
X175250000Y-98750000D01*
X175250000Y-98750000D02*
X175250000Y-93000000D01*
G36*
X175250000Y-93000000D02*
G01*
X176000000Y-93000000D01*
X176000000Y-98750000D01*
X175250000Y-98750000D01*
X175250000Y-93000000D01*
G37*
D11*
X157500000Y-79750000D02*
X165250000Y-79750000D01*
X165250000Y-87750000D01*
X157500000Y-87750000D01*
X157500000Y-93000000D01*
X150000000Y-93000000D01*
X150000000Y-75250000D01*
X157500000Y-75250000D01*
X157500000Y-79750000D01*
D10*
X155910148Y-83202380D02*
X155719672Y-83202380D01*
X155630386Y-83250000D01*
X155547053Y-83345238D01*
X155523244Y-83535714D01*
X155564910Y-83869047D01*
X155636339Y-84059523D01*
X155743482Y-84154761D01*
X155844672Y-84202380D01*
X156035148Y-84202380D01*
X156124434Y-84154761D01*
X156207767Y-84059523D01*
X156231577Y-83869047D01*
X156189910Y-83535714D01*
X156118482Y-83345238D01*
X156011339Y-83250000D01*
X155910148Y-83202380D01*
X155094672Y-83535714D02*
X155219672Y-84535714D01*
X155100625Y-83583333D02*
X154999434Y-83535714D01*
X154808958Y-83535714D01*
X154719672Y-83583333D01*
X154678005Y-83630952D01*
X154642291Y-83726190D01*
X154678005Y-84011904D01*
X154737529Y-84107142D01*
X154791101Y-84154761D01*
X154892291Y-84202380D01*
X155082767Y-84202380D01*
X155172053Y-84154761D01*
X154332767Y-83535714D02*
X153951815Y-83535714D01*
X154148244Y-83202380D02*
X154255386Y-84059523D01*
X154219672Y-84154761D01*
X154130386Y-84202380D01*
X154035148Y-84202380D01*
X153701815Y-84202380D02*
X153618482Y-83535714D01*
X153576815Y-83202380D02*
X153630386Y-83250000D01*
X153588720Y-83297619D01*
X153535148Y-83250000D01*
X153576815Y-83202380D01*
X153588720Y-83297619D01*
X153082767Y-84202380D02*
X153172053Y-84154761D01*
X153213720Y-84107142D01*
X153249434Y-84011904D01*
X153213720Y-83726190D01*
X153154196Y-83630952D01*
X153100625Y-83583333D01*
X152999434Y-83535714D01*
X152856577Y-83535714D01*
X152767291Y-83583333D01*
X152725625Y-83630952D01*
X152689910Y-83726190D01*
X152725625Y-84011904D01*
X152785148Y-84107142D01*
X152838720Y-84154761D01*
X152939910Y-84202380D01*
X153082767Y-84202380D01*
X152237529Y-83535714D02*
X152320863Y-84202380D01*
X152249434Y-83630952D02*
X152195863Y-83583333D01*
X152094672Y-83535714D01*
X151951815Y-83535714D01*
X151862529Y-83583333D01*
X151826815Y-83678571D01*
X151892291Y-84202380D01*
X150987529Y-84202380D02*
X150922053Y-83678571D01*
X150957767Y-83583333D01*
X151047053Y-83535714D01*
X151237529Y-83535714D01*
X151338720Y-83583333D01*
X150981577Y-84154761D02*
X151082767Y-84202380D01*
X151320863Y-84202380D01*
X151410148Y-84154761D01*
X151445863Y-84059523D01*
X151433958Y-83964285D01*
X151374434Y-83869047D01*
X151273244Y-83821428D01*
X151035148Y-83821428D01*
X150933958Y-83773809D01*
X150368482Y-84202380D02*
X150457767Y-84154761D01*
X150493482Y-84059523D01*
X150386339Y-83202380D01*
X151416666Y-81952380D02*
X151750000Y-81476190D01*
X151988095Y-81952380D02*
X151988095Y-80952380D01*
X151607142Y-80952380D01*
X151511904Y-81000000D01*
X151464285Y-81047619D01*
X151416666Y-81142857D01*
X151416666Y-81285714D01*
X151464285Y-81380952D01*
X151511904Y-81428571D01*
X151607142Y-81476190D01*
X151988095Y-81476190D01*
X151035714Y-81047619D02*
X150988095Y-81000000D01*
X150892857Y-80952380D01*
X150654761Y-80952380D01*
X150559523Y-81000000D01*
X150511904Y-81047619D01*
X150464285Y-81142857D01*
X150464285Y-81238095D01*
X150511904Y-81380952D01*
X151083333Y-81952380D01*
X150464285Y-81952380D01*
X168166666Y-81857142D02*
X168214285Y-81904761D01*
X168357142Y-81952380D01*
X168452380Y-81952380D01*
X168595238Y-81904761D01*
X168690476Y-81809523D01*
X168738095Y-81714285D01*
X168785714Y-81523809D01*
X168785714Y-81380952D01*
X168738095Y-81190476D01*
X168690476Y-81095238D01*
X168595238Y-81000000D01*
X168452380Y-80952380D01*
X168357142Y-80952380D01*
X168214285Y-81000000D01*
X168166666Y-81047619D01*
X167785714Y-81047619D02*
X167738095Y-81000000D01*
X167642857Y-80952380D01*
X167404761Y-80952380D01*
X167309523Y-81000000D01*
X167261904Y-81047619D01*
X167214285Y-81142857D01*
X167214285Y-81238095D01*
X167261904Y-81380952D01*
X167833333Y-81952380D01*
X167214285Y-81952380D01*
X168166666Y-87107142D02*
X168214285Y-87154761D01*
X168357142Y-87202380D01*
X168452380Y-87202380D01*
X168595238Y-87154761D01*
X168690476Y-87059523D01*
X168738095Y-86964285D01*
X168785714Y-86773809D01*
X168785714Y-86630952D01*
X168738095Y-86440476D01*
X168690476Y-86345238D01*
X168595238Y-86250000D01*
X168452380Y-86202380D01*
X168357142Y-86202380D01*
X168214285Y-86250000D01*
X168166666Y-86297619D01*
X167214285Y-87202380D02*
X167785714Y-87202380D01*
X167500000Y-87202380D02*
X167500000Y-86202380D01*
X167595238Y-86345238D01*
X167690476Y-86440476D01*
X167785714Y-86488095D01*
X156488095Y-90952380D02*
X156488095Y-89952380D01*
X156250000Y-89952380D01*
X156107142Y-90000000D01*
X156011904Y-90095238D01*
X155964285Y-90190476D01*
X155916666Y-90380952D01*
X155916666Y-90523809D01*
X155964285Y-90714285D01*
X156011904Y-90809523D01*
X156107142Y-90904761D01*
X156250000Y-90952380D01*
X156488095Y-90952380D01*
X154964285Y-90952380D02*
X155535714Y-90952380D01*
X155250000Y-90952380D02*
X155250000Y-89952380D01*
X155345238Y-90095238D01*
X155440476Y-90190476D01*
X155535714Y-90238095D01*
X174702380Y-78488095D02*
X175511904Y-78488095D01*
X175607142Y-78535714D01*
X175654761Y-78583333D01*
X175702380Y-78678571D01*
X175702380Y-78869047D01*
X175654761Y-78964285D01*
X175607142Y-79011904D01*
X175511904Y-79059523D01*
X174702380Y-79059523D01*
X175702380Y-80059523D02*
X175702380Y-79488095D01*
X175702380Y-79773809D02*
X174702380Y-79773809D01*
X174845238Y-79678571D01*
X174940476Y-79583333D01*
X174988095Y-79488095D01*
X156988095Y-77952380D02*
X156988095Y-76952380D01*
X156750000Y-76952380D01*
X156607142Y-77000000D01*
X156511904Y-77095238D01*
X156464285Y-77190476D01*
X156416666Y-77380952D01*
X156416666Y-77523809D01*
X156464285Y-77714285D01*
X156511904Y-77809523D01*
X156607142Y-77904761D01*
X156750000Y-77952380D01*
X156988095Y-77952380D01*
X156035714Y-77047619D02*
X155988095Y-77000000D01*
X155892857Y-76952380D01*
X155654761Y-76952380D01*
X155559523Y-77000000D01*
X155511904Y-77047619D01*
X155464285Y-77142857D01*
X155464285Y-77238095D01*
X155511904Y-77380952D01*
X156083333Y-77952380D01*
X155464285Y-77952380D01*
X174972380Y-100566666D02*
X175686666Y-100566666D01*
X175829523Y-100519047D01*
X175924761Y-100423809D01*
X175972380Y-100280952D01*
X175972380Y-100185714D01*
X175972380Y-101566666D02*
X175972380Y-100995238D01*
X175972380Y-101280952D02*
X174972380Y-101280952D01*
X175115238Y-101185714D01*
X175210476Y-101090476D01*
X175258095Y-100995238D01*
X151166666Y-86452380D02*
X151500000Y-85976190D01*
X151738095Y-86452380D02*
X151738095Y-85452380D01*
X151357142Y-85452380D01*
X151261904Y-85500000D01*
X151214285Y-85547619D01*
X151166666Y-85642857D01*
X151166666Y-85785714D01*
X151214285Y-85880952D01*
X151261904Y-85928571D01*
X151357142Y-85976190D01*
X151738095Y-85976190D01*
X150214285Y-86452380D02*
X150785714Y-86452380D01*
X150500000Y-86452380D02*
X150500000Y-85452380D01*
X150595238Y-85595238D01*
X150690476Y-85690476D01*
X150785714Y-85738095D01*
D12*
X155480000Y-80130000D02*
X162020000Y-80130000D01*
X155480000Y-82870000D02*
X155480000Y-80130000D01*
X162020000Y-80130000D02*
X162020000Y-82870000D01*
X154710000Y-81500000D02*
X155480000Y-81500000D01*
X162790000Y-81500000D02*
X162020000Y-81500000D01*
X162020000Y-82870000D02*
X155480000Y-82870000D01*
X176250000Y-88250000D02*
X158250000Y-88250000D01*
X176250000Y-88250000D02*
X176250000Y-77250000D01*
X158250000Y-90250000D02*
X158250000Y-88250000D01*
X158250000Y-75250000D02*
X178250000Y-75250000D01*
X158250000Y-77250000D02*
X158250000Y-75250000D01*
X178250000Y-90250000D02*
X178250000Y-75250000D01*
X178250000Y-90250000D02*
X158250000Y-90250000D01*
X158250000Y-77250000D02*
X176250000Y-77250000D01*
X170312288Y-78440000D02*
X170312288Y-78890000D01*
X170537288Y-78665000D02*
X170087288Y-78665000D01*
X170119741Y-78940000D02*
G75*
G03*
X170119741Y-81060000I-2119741J-1060000D01*
G01*
X170312288Y-83690000D02*
X170312288Y-84140000D01*
X170537288Y-83915000D02*
X170087288Y-83915000D01*
X170119741Y-84190000D02*
G75*
G03*
X170119741Y-86310000I-2119741J-1060000D01*
G01*
X153736000Y-91800000D02*
X153580000Y-91800000D01*
X151420000Y-91800000D02*
X151264000Y-91800000D01*
X151421392Y-88567665D02*
G75*
G03*
X151264484Y-91800000I1078608J-1672335D01*
G01*
X153580000Y-91280961D02*
G75*
G03*
X153579837Y-89198870I-1080000J1040961D01*
G01*
X151420163Y-89198870D02*
G75*
G03*
X151420000Y-91280961I1079837J-1041130D01*
G01*
X153735516Y-91800000D02*
G75*
G03*
X153578608Y-88567665I-1235516J1560000D01*
G01*
X176020000Y-87830000D02*
X176020000Y-77590000D01*
X174510000Y-87830000D02*
X174510000Y-77590000D01*
X176020000Y-77590000D02*
X171379000Y-77590000D01*
X176020000Y-87830000D02*
X171379000Y-87830000D01*
X171379000Y-87830000D02*
X171379000Y-77590000D01*
X176020000Y-84560000D02*
X174510000Y-84560000D01*
X176020000Y-80859000D02*
X174510000Y-80859000D01*
X154290000Y-78580000D02*
X154290000Y-78736000D01*
X154290000Y-76264000D02*
X154290000Y-76420000D01*
X153770961Y-76420000D02*
G75*
G03*
X151688870Y-76420163I-1040961J-1080000D01*
G01*
X154290000Y-76264484D02*
G75*
G03*
X151057665Y-76421392I-1560000J-1235516D01*
G01*
X151688870Y-78579837D02*
G75*
G03*
X153770961Y-78580000I1041130J1079837D01*
G01*
X151057665Y-78578608D02*
G75*
G03*
X154290000Y-78735516I1672335J1078608D01*
G01*
X157870000Y-99250000D02*
X157870000Y-98840000D01*
X168940000Y-107880000D02*
X168940000Y-99250000D01*
X173133335Y-107880000D02*
X173133335Y-99250000D01*
X160410000Y-99250000D02*
X160410000Y-98840000D01*
X173015240Y-107880000D02*
X173015240Y-99250000D01*
X154610000Y-99250000D02*
X154610000Y-98840000D01*
X154610000Y-96740000D02*
X154610000Y-96300000D01*
X173110000Y-99250000D02*
X173110000Y-98840000D01*
X170570000Y-96740000D02*
X170570000Y-96300000D01*
X173841905Y-107880000D02*
X173841905Y-99250000D01*
X158780000Y-107880000D02*
X158780000Y-99250000D01*
X156240000Y-107880000D02*
X156240000Y-99250000D01*
X165490000Y-96740000D02*
X165490000Y-96300000D01*
X157150000Y-96740000D02*
X157150000Y-96300000D01*
X171834290Y-107880000D02*
X171834290Y-99250000D01*
X173723810Y-107880000D02*
X173723810Y-99250000D01*
X169850000Y-96740000D02*
X169850000Y-96300000D01*
X172390000Y-99250000D02*
X172390000Y-98840000D01*
X162950000Y-99250000D02*
X162950000Y-98840000D01*
X171716195Y-107880000D02*
X171716195Y-99250000D01*
X160410000Y-96740000D02*
X160410000Y-96300000D01*
X168030000Y-96740000D02*
X168030000Y-96300000D01*
X174080000Y-107880000D02*
X174080000Y-99250000D01*
X171598100Y-107880000D02*
X171598100Y-99250000D01*
X174080000Y-99250000D02*
X153640000Y-99250000D01*
X173605715Y-107880000D02*
X173605715Y-99250000D01*
X173960000Y-107880000D02*
X173960000Y-99250000D01*
X171480000Y-107880000D02*
X171480000Y-99250000D01*
X173251430Y-107880000D02*
X173251430Y-99250000D01*
X168030000Y-99250000D02*
X168030000Y-98840000D01*
X162950000Y-96740000D02*
X162950000Y-96300000D01*
X172542860Y-107880000D02*
X172542860Y-99250000D01*
X172660955Y-107880000D02*
X172660955Y-99250000D01*
X173110000Y-96740000D02*
X173110000Y-96360000D01*
X172390000Y-96740000D02*
X172390000Y-96360000D01*
X153640000Y-107880000D02*
X153640000Y-99250000D01*
X163860000Y-107880000D02*
X163860000Y-99250000D01*
X155330000Y-96740000D02*
X155330000Y-96300000D01*
X172070480Y-107880000D02*
X172070480Y-99250000D01*
X162230000Y-96740000D02*
X162230000Y-96300000D01*
X164770000Y-96740000D02*
X164770000Y-96300000D01*
X170570000Y-99250000D02*
X170570000Y-98840000D01*
X165490000Y-99250000D02*
X165490000Y-98840000D01*
X173369525Y-107880000D02*
X173369525Y-99250000D01*
X157870000Y-96740000D02*
X157870000Y-96300000D01*
X157150000Y-99250000D02*
X157150000Y-98840000D01*
X172779050Y-107880000D02*
X172779050Y-99250000D01*
X174080000Y-95250000D02*
X174080000Y-94140000D01*
X172306670Y-107880000D02*
X172306670Y-99250000D01*
X162230000Y-99250000D02*
X162230000Y-98840000D01*
X167310000Y-96740000D02*
X167310000Y-96300000D01*
X161320000Y-107880000D02*
X161320000Y-99250000D01*
X155330000Y-99250000D02*
X155330000Y-98840000D01*
X173487620Y-107880000D02*
X173487620Y-99250000D01*
X159690000Y-99250000D02*
X159690000Y-98840000D01*
X172188575Y-107880000D02*
X172188575Y-99250000D01*
X172897145Y-107880000D02*
X172897145Y-99250000D01*
X169850000Y-99250000D02*
X169850000Y-98840000D01*
X166400000Y-107880000D02*
X166400000Y-99250000D01*
X174080000Y-94140000D02*
X172750000Y-94140000D01*
X172424765Y-107880000D02*
X172424765Y-99250000D01*
X164770000Y-99250000D02*
X164770000Y-98840000D01*
X159690000Y-96740000D02*
X159690000Y-96300000D01*
X171952385Y-107880000D02*
X171952385Y-99250000D01*
X167310000Y-99250000D02*
X167310000Y-98840000D01*
X174080000Y-107880000D02*
X153640000Y-107880000D01*
X155480000Y-84630000D02*
X162020000Y-84630000D01*
X162020000Y-84630000D02*
X162020000Y-87370000D01*
X162020000Y-87370000D02*
X155480000Y-87370000D01*
X162790000Y-86000000D02*
X162020000Y-86000000D01*
X155480000Y-87370000D02*
X155480000Y-84630000D01*
X154710000Y-86000000D02*
X155480000Y-86000000D01*
%LPC*%
D13*
X163830000Y-81500000D03*
D14*
X153670000Y-81500000D03*
D15*
X169250000Y-80000000D03*
D13*
X166750000Y-80000000D03*
D15*
X169250000Y-85250000D03*
D13*
X166750000Y-85250000D03*
D16*
X152500000Y-91510000D03*
D17*
X152500000Y-88970000D03*
D18*
X172750000Y-85250000D03*
D19*
X172750000Y-82710000D03*
X172750000Y-80170000D03*
D16*
X154000000Y-77500000D03*
D17*
X151460000Y-77500000D03*
D20*
X172750000Y-95250000D03*
D21*
X172750000Y-97790000D03*
X170210000Y-95250000D03*
X170210000Y-97790000D03*
X167670000Y-95250000D03*
X167670000Y-97790000D03*
X165130000Y-95250000D03*
X165130000Y-97790000D03*
X162590000Y-95250000D03*
X162590000Y-97790000D03*
X160050000Y-95250000D03*
X160050000Y-97790000D03*
X157510000Y-95250000D03*
X157510000Y-97790000D03*
X154970000Y-95250000D03*
X154970000Y-97790000D03*
D13*
X163830000Y-86000000D03*
D14*
X153670000Y-86000000D03*
M02*
